<svg width="165" height="165" viewBox="0 0 165 165" fill="none" xmlns="http://www.w3.org/2000/svg">
<path fill-rule="evenodd" clip-rule="evenodd" d="M69.6837 23.545C73.9307 19.2981 80.8163 19.2981 85.0633 23.545C89.3102 27.792 89.3102 34.6776 85.0633 38.9246L67.1205 56.8674L108.133 97.8796L126.075 79.9368C130.322 75.6898 137.208 75.6898 141.455 79.9368C145.702 84.1837 145.702 91.0694 141.455 95.3163L133.765 103.006C136.597 100.175 141.187 100.175 144.018 103.006C146.85 105.837 146.85 110.428 144.018 113.259L133.765 123.512C136.597 126.344 136.597 130.934 133.765 133.765C130.934 136.597 126.344 136.597 123.512 133.765L113.259 144.018C110.428 146.85 105.837 146.85 103.006 144.018C100.175 141.187 100.175 136.597 103.006 133.765L95.3163 141.455C91.0694 145.702 84.1837 145.702 79.9368 141.455C75.6898 137.208 75.6898 130.322 79.9368 126.075L97.8796 108.133L56.8674 67.1205L38.9246 85.0633C34.6776 89.3102 27.792 89.3102 23.545 85.0633C19.2981 80.8163 19.2981 73.9307 23.545 69.6837L31.2348 61.9939C28.4035 64.8252 23.8131 64.8252 20.9818 61.9939C18.1505 59.1626 18.1505 54.5722 20.9818 51.7409L31.2348 41.4878C28.4035 38.6565 28.4035 34.0661 31.2348 31.2348C34.0661 28.4035 38.6565 28.4035 41.4878 31.2348L51.7409 20.9817C54.5722 18.1504 59.1626 18.1504 61.9939 20.9817C64.8252 23.813 64.8252 28.4035 61.9939 31.2348L69.6837 23.545Z" fill="#2C2B2B"/>
</svg>
